<?xml version="1.0" standalone="no"?>
<!DOCTYPE svg PUBLIC "-//W3C//DTD SVG 20010904//EN"
 "http://www.w3.org/TR/2001/REC-SVG-20010904/DTD/svg10.dtd">
<svg version="1.0" xmlns="http://www.w3.org/2000/svg"
 width="800.000000pt" height="800.000000pt" viewBox="0 0 800.000000 800.000000"
 preserveAspectRatio="xMidYMid meet">
<metadata>
Created by potrace 1.14, written by Peter Selinger 2001-2017
</metadata>
<g transform="translate(0.000000,800.000000) scale(0.100000,-0.100000)"
fill="#000000" stroke="none">
<path d="M3528 7480 c-4 -14 -9 -44 -12 -68 -2 -24 -11 -51 -20 -60 -9 -11
-19 -54 -25 -116 -6 -60 -16 -108 -27 -124 -15 -23 -17 -64 -16 -389 0 -322 2
-366 16 -382 11 -12 20 -51 27 -107 6 -52 16 -95 25 -105 8 -9 19 -44 24 -78
5 -36 17 -72 29 -87 12 -15 21 -41 21 -60 0 -22 7 -40 20 -51 11 -10 23 -33
26 -53 4 -19 15 -46 25 -60 9 -14 21 -44 25 -65 4 -22 15 -46 25 -53 10 -7 21
-29 25 -50 4 -20 15 -43 25 -50 10 -7 21 -29 25 -48 4 -20 13 -38 20 -41 8 -3
19 -23 25 -44 7 -21 20 -46 31 -55 10 -10 18 -25 18 -34 0 -9 11 -31 25 -50
14 -19 25 -39 25 -45 0 -7 9 -20 19 -29 11 -10 23 -32 27 -50 4 -17 15 -37 25
-44 9 -6 21 -27 25 -45 3 -17 15 -38 25 -45 9 -6 20 -25 24 -41 3 -16 15 -37
26 -47 10 -9 19 -25 19 -34 0 -9 11 -31 25 -50 14 -19 25 -42 25 -51 0 -10 6
-22 14 -26 18 -11 36 -47 36 -73 0 -11 7 -23 15 -26 8 -3 20 -25 27 -47 7 -23
20 -49 29 -58 9 -9 20 -32 24 -50 4 -19 15 -43 25 -54 10 -11 21 -38 25 -59 3
-22 15 -51 26 -64 10 -14 19 -37 19 -52 0 -15 9 -39 21 -54 13 -17 24 -51 29
-92 5 -36 15 -74 24 -83 10 -11 19 -45 23 -87 3 -38 15 -85 25 -105 11 -22 21
-67 24 -120 3 -46 13 -99 21 -117 16 -37 32 -178 33 -289 0 -39 5 -75 10 -78
14 -8 14 -462 0 -470 -6 -3 -10 -30 -10 -58 -1 -84 -17 -187 -33 -205 -8 -9
-17 -41 -20 -71 -4 -34 -14 -62 -27 -76 -11 -12 -20 -33 -20 -47 0 -14 -11
-42 -25 -62 -14 -20 -25 -41 -25 -46 0 -6 -8 -18 -17 -28 -10 -9 -26 -30 -36
-45 -22 -34 -46 -64 -68 -86 -45 -43 -79 -70 -98 -76 -12 -3 -21 -11 -21 -16
0 -6 -15 -17 -32 -25 -18 -9 -49 -24 -68 -35 -19 -10 -50 -19 -68 -19 -19 0
-45 -9 -58 -19 -19 -15 -50 -21 -142 -27 -115 -8 -116 -8 -62 -17 30 -5 64
-17 76 -28 19 -17 38 -19 242 -19 200 0 224 2 254 19 18 11 60 23 93 27 41 5
64 13 73 25 7 11 31 22 53 25 22 4 39 12 39 20 0 7 10 16 22 20 29 9 217 192
229 221 5 13 15 23 24 23 8 0 15 6 15 14 0 8 11 27 24 43 13 15 26 38 30 49 4
12 15 29 26 39 11 10 20 26 20 36 0 10 11 31 25 47 14 17 25 39 25 50 0 12 11
33 25 48 14 15 25 38 25 51 0 13 9 31 20 40 11 10 23 33 26 53 4 19 14 44 24
55 9 11 20 36 24 55 3 19 15 43 25 55 10 11 21 40 24 63 3 24 14 54 25 65 11
12 22 39 25 61 3 21 13 43 21 50 9 6 20 33 25 59 5 26 16 56 25 66 9 9 20 39
25 65 5 26 15 54 24 64 8 9 18 34 22 55 4 20 15 47 25 60 9 12 20 38 24 58 3
20 15 47 26 59 11 13 20 35 20 50 0 15 11 44 25 64 14 20 25 43 25 51 0 19 21
65 30 65 4 0 13 20 19 44 6 24 17 49 26 56 8 6 17 27 21 46 3 19 14 40 23 47
9 6 22 31 29 53 7 23 18 44 26 47 8 3 17 19 21 36 3 16 13 35 21 42 8 7 21 27
29 46 8 18 18 33 24 33 5 0 15 16 21 35 6 19 20 40 31 45 10 6 19 17 19 25 0
8 8 20 19 27 10 7 21 23 25 36 4 12 12 22 17 22 5 0 17 13 27 30 18 29 95 122
120 144 7 6 23 20 35 32 54 51 158 134 170 134 7 0 18 9 25 20 7 11 18 20 26
20 7 0 25 11 40 25 15 14 33 25 40 25 7 0 25 11 40 25 15 14 37 25 49 25 34 0
55 16 40 31 -9 9 -30 9 -88 0 -42 -6 -102 -11 -133 -11 -39 0 -70 -7 -96 -21
-21 -11 -61 -23 -90 -26 -28 -3 -63 -13 -78 -24 -15 -10 -46 -22 -70 -25 -24
-4 -54 -15 -67 -25 -12 -10 -38 -21 -56 -25 -19 -3 -41 -15 -51 -25 -9 -10
-25 -19 -34 -19 -9 0 -29 -11 -44 -25 -15 -14 -34 -25 -42 -25 -8 0 -24 -11
-36 -25 -12 -14 -27 -25 -33 -25 -6 0 -22 -11 -35 -25 -13 -14 -28 -25 -34
-25 -6 0 -33 -23 -60 -50 -27 -28 -55 -50 -61 -50 -7 0 -17 -11 -23 -25 -6
-14 -18 -25 -27 -25 -8 0 -15 -5 -15 -11 0 -6 -12 -26 -27 -44 -16 -17 -39
-47 -53 -64 -14 -18 -35 -43 -47 -56 -13 -12 -23 -27 -23 -32 0 -5 -11 -19
-25 -31 -14 -12 -25 -28 -25 -36 0 -7 -7 -20 -17 -27 -9 -8 -22 -29 -30 -46
-10 -24 -20 -33 -37 -33 -14 0 -31 -3 -39 -6 -20 -7 -36 23 -47 93 -5 31 -16
63 -25 73 -8 9 -19 38 -24 64 -5 26 -16 55 -25 65 -9 10 -20 36 -23 57 -3 22
-14 48 -23 59 -10 11 -21 36 -25 55 -4 19 -15 44 -25 55 -9 11 -21 34 -24 50
-4 17 -16 39 -25 50 -10 11 -21 33 -25 48 -4 16 -16 38 -26 50 -11 11 -20 29
-20 38 0 10 -9 24 -19 31 -11 8 -23 27 -27 43 -4 17 -18 40 -31 52 -12 12 -23
28 -23 36 0 8 -9 22 -19 31 -11 10 -22 28 -25 41 -4 14 -17 35 -31 49 -14 14
-25 31 -25 39 0 8 -9 22 -20 32 -11 10 -20 23 -20 30 0 6 -11 22 -25 35 -14
13 -25 29 -25 36 0 7 -11 25 -25 40 -14 15 -25 33 -25 40 0 7 -8 19 -18 26
-10 7 -24 28 -31 46 -7 17 -18 32 -23 32 -5 0 -14 14 -20 30 -5 17 -18 35 -28
40 -10 5 -21 23 -25 40 -4 17 -15 35 -26 40 -10 6 -19 20 -19 31 0 11 -7 22
-15 26 -9 3 -24 22 -35 42 -10 21 -26 43 -34 50 -9 8 -16 20 -16 29 0 8 -11
25 -25 38 -14 13 -25 32 -25 43 0 11 -9 25 -19 31 -11 5 -22 23 -26 39 -3 16
-15 37 -26 47 -10 9 -19 25 -19 35 0 10 -11 30 -25 45 -14 15 -25 36 -25 47 0
10 -11 32 -25 49 -14 16 -25 39 -25 50 0 11 -11 33 -25 50 -14 16 -25 39 -25
51 0 11 -9 31 -21 43 -11 12 -23 42 -26 66 -3 23 -14 52 -23 63 -10 11 -22 38
-26 60 -4 22 -15 50 -24 63 -10 12 -21 49 -25 82 -4 33 -11 60 -15 60 -11 0
-27 54 -35 120 -3 30 -14 66 -22 80 -11 17 -18 54 -20 110 -3 59 -10 98 -25
129 -17 37 -22 71 -27 215 -4 94 -10 160 -13 146z"/>
<path d="M3940 6770 c-155 -10 -150 -7 -135 -83 7 -34 19 -75 28 -91 9 -16 19
-46 22 -66 3 -20 20 -53 36 -73 29 -35 31 -36 117 -41 161 -9 387 -35 432 -50
25 -8 76 -20 113 -26 38 -6 78 -17 90 -24 12 -8 42 -17 67 -21 25 -4 61 -15
80 -25 20 -9 51 -21 70 -25 19 -4 51 -16 70 -26 19 -10 60 -29 90 -42 82 -36
123 -56 140 -66 8 -6 46 -27 83 -48 126 -70 207 -123 207 -133 0 -5 9 -11 19
-15 11 -3 37 -19 58 -35 21 -16 49 -37 61 -47 68 -51 336 -313 397 -388 22
-26 50 -59 62 -72 13 -13 30 -37 38 -53 9 -17 19 -30 24 -30 5 0 14 -12 20
-27 6 -16 27 -48 46 -73 19 -25 40 -56 46 -70 6 -14 18 -34 28 -45 10 -11 21
-32 25 -47 8 -33 34 -36 92 -11 22 9 80 19 129 22 l90 6 -1 38 c-1 21 -8 43
-17 50 -9 7 -21 32 -27 57 -7 25 -18 52 -25 60 -7 8 -20 31 -29 50 -8 19 -20
42 -26 50 -5 8 -17 31 -25 50 -23 50 -47 92 -73 125 -12 15 -22 34 -22 42 0 7
-6 16 -14 19 -8 3 -19 19 -25 35 -5 16 -15 29 -20 29 -6 0 -19 17 -30 38 -11
20 -37 57 -59 82 -22 25 -51 57 -64 72 -36 44 -232 238 -289 288 -28 25 -61
54 -72 65 -12 11 -31 25 -43 31 -21 11 -35 22 -88 70 -15 13 -30 24 -34 24 -8
0 -85 50 -124 79 -14 12 -33 21 -42 21 -8 0 -27 11 -42 25 -15 14 -34 25 -44
25 -9 0 -31 11 -50 25 -19 14 -41 25 -51 25 -9 0 -27 8 -40 19 -13 10 -39 22
-58 26 -19 4 -54 18 -79 31 -25 13 -54 24 -65 24 -11 0 -34 9 -51 19 -17 11
-53 22 -81 26 -27 4 -68 15 -90 25 -22 10 -71 21 -110 25 -38 4 -81 13 -95 20
-50 26 -451 48 -640 35z"/>
<path d="M3130 6691 c-19 -10 -52 -21 -74 -25 -21 -4 -55 -16 -75 -27 -20 -10
-42 -19 -49 -19 -8 0 -35 -11 -61 -24 -25 -13 -98 -50 -161 -81 -63 -32 -117
-61 -120 -65 -3 -4 -21 -16 -42 -26 -20 -11 -60 -35 -90 -55 -29 -19 -66 -44
-82 -55 -16 -10 -39 -26 -51 -34 -38 -25 -215 -165 -278 -220 -100 -87 -235
-234 -327 -356 -33 -43 -67 -88 -75 -99 -110 -142 -309 -527 -361 -695 -7 -25
-22 -72 -33 -105 -37 -115 -60 -200 -66 -245 -3 -25 -12 -65 -20 -90 -19 -58
-45 -374 -45 -538 0 -156 26 -486 40 -512 6 -11 17 -61 24 -112 8 -51 21 -109
29 -128 8 -19 20 -62 27 -95 7 -32 18 -68 25 -80 7 -11 16 -36 20 -55 4 -19
13 -44 19 -55 7 -11 21 -44 30 -72 10 -29 22 -55 26 -58 5 -3 14 -25 21 -48 6
-23 16 -49 23 -57 7 -8 29 -49 50 -90 21 -41 44 -82 51 -90 8 -8 19 -26 25
-40 15 -37 122 -196 174 -261 12 -15 32 -41 46 -59 14 -18 43 -52 65 -77 22
-25 45 -53 51 -62 15 -21 213 -219 234 -234 9 -7 39 -31 66 -54 58 -50 149
-122 184 -146 14 -9 43 -30 65 -46 22 -16 58 -39 80 -51 22 -11 58 -32 80 -45
22 -14 58 -34 80 -45 22 -11 51 -27 65 -34 56 -32 130 -64 158 -71 17 -3 36
-13 42 -20 7 -8 28 -17 49 -21 20 -4 50 -14 66 -24 17 -10 48 -21 70 -25 22
-3 58 -15 81 -24 22 -10 62 -21 88 -25 26 -4 66 -14 89 -22 23 -8 93 -21 157
-30 75 -9 119 -20 126 -29 16 -21 734 -23 734 -1 0 13 40 21 195 41 28 4 76
15 107 26 32 10 70 19 85 19 15 0 41 7 56 15 16 8 47 19 70 25 50 13 166 55
222 80 22 10 70 33 106 49 36 17 69 31 73 31 4 0 40 19 79 42 40 24 83 49 97
56 41 21 95 55 159 100 33 23 64 42 67 42 4 0 16 9 28 20 12 11 75 65 141 119
135 111 304 281 384 386 30 39 63 80 74 92 11 12 25 31 31 41 25 43 56 88 68
101 7 8 20 27 28 42 52 95 106 187 121 208 11 13 19 31 19 41 0 10 9 29 20 43
11 14 23 40 27 59 3 18 17 53 30 77 13 24 23 51 23 60 0 9 8 30 18 46 10 17
22 50 26 75 4 25 14 56 22 69 9 12 20 53 25 89 5 36 16 80 25 96 18 36 33 226
17 226 -5 0 -14 -32 -20 -71 -6 -39 -18 -78 -26 -87 -8 -9 -18 -35 -22 -57 -3
-22 -15 -53 -25 -70 -10 -16 -23 -49 -29 -72 -7 -24 -16 -43 -21 -43 -5 0 -15
-20 -21 -44 -6 -25 -20 -52 -30 -62 -10 -9 -19 -25 -19 -34 0 -9 -11 -31 -25
-50 -14 -19 -25 -38 -25 -43 0 -6 -17 -35 -37 -65 -21 -30 -47 -69 -58 -87
-45 -73 -76 -115 -85 -115 -6 0 -10 -5 -10 -11 0 -29 -275 -319 -379 -399 -18
-14 -43 -34 -57 -45 -54 -46 -137 -106 -191 -139 -26 -16 -64 -39 -83 -51 -19
-13 -45 -26 -57 -30 -13 -3 -23 -10 -23 -15 0 -5 -20 -16 -45 -25 -25 -10 -50
-24 -56 -31 -6 -8 -19 -14 -29 -14 -9 0 -38 -11 -64 -25 -26 -14 -53 -25 -59
-25 -7 0 -31 -9 -52 -20 -22 -12 -62 -26 -90 -32 -27 -6 -59 -17 -70 -24 -11
-7 -48 -17 -82 -23 -33 -5 -82 -17 -107 -25 -26 -9 -101 -21 -169 -27 -67 -6
-130 -15 -139 -20 -27 -15 -348 -11 -425 5 -37 8 -101 17 -142 21 -41 3 -96
15 -123 26 -27 10 -57 19 -68 19 -18 0 -143 46 -205 75 -16 8 -46 22 -65 30
-19 9 -51 26 -70 38 -20 12 -50 31 -69 42 -150 90 -356 287 -461 439 -14 20
-32 45 -40 56 -23 29 -102 161 -120 200 -6 14 -17 32 -24 40 -8 8 -19 33 -26
55 -7 22 -21 53 -31 70 -11 16 -19 37 -19 45 0 8 -12 38 -25 65 -14 28 -25 59
-25 70 0 11 -7 30 -15 42 -8 12 -21 52 -29 90 -8 37 -21 86 -29 108 -8 22 -17
63 -21 90 -4 28 -14 73 -21 101 -25 87 -49 377 -49 584 -1 181 8 278 36 420
10 51 11 53 21 30 5 -14 13 -120 18 -236 4 -129 13 -236 23 -275 8 -35 20
-113 26 -173 6 -60 16 -118 21 -128 6 -10 17 -60 25 -109 8 -50 19 -100 25
-110 5 -11 17 -53 24 -95 8 -41 21 -84 29 -97 8 -12 18 -40 22 -62 4 -22 14
-56 24 -75 10 -19 20 -51 24 -71 4 -21 13 -42 21 -49 7 -6 17 -25 20 -41 7
-29 92 -203 130 -264 110 -177 201 -285 305 -361 68 -50 163 -104 181 -104 8
0 32 -10 54 -22 38 -22 51 -23 235 -23 l195 1 70 33 c77 37 158 113 182 171 9
19 20 41 26 48 19 24 59 125 69 177 5 28 18 79 28 115 24 85 35 238 35 490 -1
266 -12 429 -36 510 -10 36 -23 96 -29 135 -6 38 -16 75 -22 82 -6 7 -17 43
-24 79 -8 36 -21 75 -29 87 -8 12 -15 33 -15 47 0 14 -11 49 -25 78 -14 30
-25 62 -25 72 0 9 -11 37 -24 62 -13 25 -27 60 -31 79 -4 19 -13 41 -20 49 -7
8 -16 26 -19 40 -4 14 -18 48 -31 75 -74 156 -205 417 -266 530 -38 72 -80
153 -94 182 -13 28 -28 54 -34 57 -5 4 -13 21 -16 39 -4 17 -12 37 -17 44 -17
21 -128 245 -128 258 0 7 -9 23 -19 37 -11 13 -24 44 -31 68 -7 25 -18 52 -25
60 -7 8 -16 32 -20 53 -4 20 -16 48 -26 61 -11 13 -19 34 -19 45 0 12 -11 47
-24 79 -13 31 -27 77 -31 102 -4 25 -14 57 -21 72 -8 16 -19 63 -24 105 -6 43
-17 98 -25 124 -9 25 -19 107 -23 185 -6 129 -8 139 -27 141 -11 1 -36 -6 -55
-16z"/>
<path d="M5060 5733 c-8 -3 -26 -14 -39 -24 -13 -11 -34 -19 -46 -19 -51 0
-244 -200 -245 -253 0 -21 -17 -55 -37 -76 -23 -22 -14 -302 9 -328 10 -11 21
-35 24 -54 4 -19 18 -47 31 -62 12 -16 23 -33 23 -38 0 -17 105 -113 143 -131
21 -10 37 -21 37 -26 0 -4 22 -14 49 -21 28 -7 55 -19 62 -27 9 -11 42 -14
147 -14 114 0 139 3 166 19 17 10 46 22 65 26 18 4 41 15 52 26 10 10 30 21
44 25 14 3 25 10 25 15 0 13 67 79 80 79 5 0 10 6 10 14 0 8 11 28 25 44 13
16 29 49 34 73 5 24 17 49 25 55 13 9 16 37 16 164 0 135 -2 155 -19 176 -11
14 -22 43 -26 64 -4 24 -14 44 -26 50 -10 6 -19 18 -19 26 0 13 -56 71 -142
148 -9 8 -33 19 -54 25 -20 5 -45 18 -56 28 -17 16 -42 18 -182 20 -88 1 -168
-1 -176 -4z"/>
<path d="M6590 4899 c0 -7 16 -8 48 -3 64 9 66 14 4 14 -30 0 -52 -4 -52 -11z"/>
<path d="M6635 4731 c-22 -9 -51 -23 -65 -32 -14 -10 -35 -20 -47 -24 -12 -3
-31 -17 -42 -31 -23 -29 -19 -81 9 -129 10 -16 21 -57 25 -90 4 -33 14 -71 22
-83 8 -13 19 -69 24 -125 6 -56 14 -109 19 -119 34 -62 39 -602 6 -666 -8 -16
-18 -71 -21 -123 -4 -55 -16 -123 -30 -164 -12 -38 -26 -97 -30 -130 -4 -32
-13 -64 -20 -70 -17 -13 -24 -77 -9 -82 7 -2 14 14 18 42 5 29 12 45 21 45 8
0 19 18 26 43 6 23 17 49 24 57 8 8 18 34 23 58 6 23 17 53 26 66 8 14 19 44
22 68 4 24 15 59 24 78 10 19 21 62 25 95 4 33 15 80 25 105 9 25 20 87 24
139 3 52 10 108 15 125 35 113 40 456 8 589 -9 37 -19 112 -23 166 -5 76 -13
111 -33 153 l-26 54 -40 -15z"/>
<path d="M6856 3642 c-4 -45 -3 -88 3 -102 7 -19 10 0 10 78 1 56 -1 102 -3
102 -2 0 -6 -35 -10 -78z"/>
</g>
</svg>
